<?xml version="1.0" standalone="no"?>
<!DOCTYPE svg PUBLIC "-//W3C//DTD SVG 20010904//EN"
 "http://www.w3.org/TR/2001/REC-SVG-20010904/DTD/svg10.dtd">
<svg version="1.0" xmlns="http://www.w3.org/2000/svg"
 width="800.000000pt" height="800.000000pt" viewBox="0 0 800.000000 800.000000"
 preserveAspectRatio="xMidYMid meet">

<g transform="translate(0.000000,800.000000) scale(0.100000,-0.100000)"
fill="#000000" stroke="none">
<path d="M3505 5540 c-307 -23 -548 -59 -782 -116 -101 -25 -308 -104 -328
-126 -7 -8 -6 -9 5 -3 13 8 13 7 1 -8 -15 -18 -26 -23 -16 -7 11 18 -5 11 -41
-17 -18 -16 -34 -34 -34 -40 0 -7 -5 -13 -12 -13 -6 0 -4 -6 7 -13 11 -9 15
-19 10 -27 -5 -9 -4 -11 3 -6 7 4 12 1 12 -10 0 -12 6 -15 21 -11 12 3 22 0
25 -8 4 -10 13 -10 40 -2 26 8 37 8 43 -1 4 -7 38 -11 93 -11 51 0 94 -5 106
-12 25 -15 50 -6 62 23 8 21 9 21 10 3 0 -11 9 -31 20 -45 19 -24 19 -24 13
-2 -3 12 -9 22 -12 22 -4 0 -8 7 -8 15 0 25 12 17 25 -18 38 -106 207 -181
533 -237 181 -32 779 -68 779 -48 0 4 15 8 33 7 164 -4 547 65 723 130 102 39
198 115 187 150 -3 11 -2 12 4 4 16 -22 231 -17 313 7 25 7 57 12 73 11 20 -2
27 2 27 15 0 14 3 15 12 6 18 -18 28 -15 28 9 0 11 5 17 10 14 6 -3 10 1 10 9
0 9 -5 16 -11 16 -5 0 -8 4 -4 9 3 6 -13 28 -36 51 -126 125 -486 223 -994
271 -147 14 -799 20 -950 9z"/>
<path d="M2285 5180 c3 -5 8 -10 11 -10 2 0 4 5 4 10 0 6 -5 10 -11 10 -5 0
-7 -4 -4 -10z"/>
<path d="M5520 5130 c0 -5 -3 -9 -7 -8 -5 2 -29 -18 -55 -43 -100 -98 -298
-174 -627 -239 -57 -12 -106 -19 -108 -16 -3 2 22 10 54 16 181 36 168 52 -18
21 -102 -18 -169 -26 -349 -46 -202 -22 -614 -29 -875 -15 -165 9 -535 49
-617 66 -16 4 -28 2 -28 -3 0 -6 24 -15 53 -21 l52 -11 -50 5 c-67 7 -242 48
-340 80 -149 49 -305 137 -305 173 0 6 -11 11 -25 11 -14 0 -28 0 -32 0 -15 1
-11 -58 7 -92 17 -33 20 -68 26 -300 10 -362 10 -667 2 -702 -6 -22 -3 -35 9
-48 9 -10 12 -18 7 -18 -5 0 -17 12 -26 28 -16 26 -17 0 -12 -473 6 -577 12
-664 56 -748 102 -192 444 -386 848 -481 220 -52 313 -61 635 -61 262 1 320 4
455 24 399 59 695 167 965 349 169 114 238 186 296 307 l24 50 2 470 c1 259 5
503 8 543 4 39 3 72 -1 72 -4 0 -21 -15 -38 -33 -17 -18 -24 -25 -16 -14 8 10
14 21 13 23 -2 2 -2 5 -2 7 2 2 8 473 10 782 2 171 5 204 20 230 9 17 20 46
24 67 6 31 4 38 -14 47 -14 8 -21 8 -21 1z m-2493 -306 c-3 -3 -12 -4 -19 -1
-8 3 -5 6 6 6 11 1 17 -2 13 -5z m66 -11 c-7 -2 -19 -2 -25 0 -7 3 -2 5 12 5
14 0 19 -2 13 -5z m1560 0 c-7 -2 -19 -2 -25 0 -7 3 -2 5 12 5 14 0 19 -2 13
-5z m-1480 -10 c-7 -2 -19 -2 -25 0 -7 3 -2 5 12 5 14 0 19 -2 13 -5z m1420 0
c-7 -2 -19 -2 -25 0 -7 3 -2 5 12 5 14 0 19 -2 13 -5z m-1330 -10 c-7 -2 -19
-2 -25 0 -7 3 -2 5 12 5 14 0 19 -2 13 -5z"/>
<path d="M2838 4873 c7 -3 16 -2 19 1 4 3 -2 6 -13 5 -11 0 -14 -3 -6 -6z"/>
</g>
</svg>
